<?xml version="1.0" encoding="UTF-8"?>
<svg version="1.1" xmlns="http://www.w3.org/2000/svg" width="500" height="500">
<path d="M0 0 C165 0 330 0 500 0 C500 165 500 330 500 500 C335 500 170 500 0 500 C0 335 0 170 0 0 Z " fill="#000000" transform="translate(0,0)"/>
<path d="M0 0 C0.99 0.36222656 1.98 0.72445312 3 1.09765625 C9.4413093 3.55995908 9.4413093 3.55995908 11.89453125 5.4921875 C13.97022355 7.14362835 13.97022355 7.14362835 16.6875 7.84765625 C21.21510318 9.42270688 24.97633003 11.86102456 29 14.4375 C30.26021973 15.2421167 30.26021973 15.2421167 31.54589844 16.06298828 C47.48882115 26.38489196 63.22068093 38.99269446 75 54 C75.78375 54.99257812 76.5675 55.98515625 77.375 57.0078125 C84.42703705 66.11863811 84.42703705 66.11863811 85 70 C85.66 70 86.32 70 87 70 C99.84124797 92.08575751 110.2710167 114.50110714 114 140 C114.20367187 141.22074219 114.40734375 142.44148437 114.6171875 143.69921875 C120.64586893 183.8766642 112.39764531 225.99718008 92 261 C91.62246582 261.65484375 91.24493164 262.3096875 90.85595703 262.984375 C86.32192116 270.79831015 86.32192116 270.79831015 84 274 C83.34 274 82.68 274 82 274 C81.74605469 274.72574219 81.49210937 275.45148438 81.23046875 276.19921875 C79.07470653 281.10614418 75.42414793 284.92187067 72 289 C71.33613281 289.80050781 70.67226563 290.60101563 69.98828125 291.42578125 C66.47333795 295.57444598 66.47333795 295.57444598 65 297 C64.34 297 63.68 297 63 297 C62.67 297.99 62.34 298.98 62 300 C61.34 300 60.68 300 60 300 C60 300.66 60 301.32 60 302 C58.45111498 303.41706502 56.83238466 304.75809496 55.1875 306.0625 C53.6715625 307.2690625 53.6715625 307.2690625 52.125 308.5 C51.60164063 308.91507812 51.07828125 309.33015625 50.5390625 309.7578125 C49.1065542 310.9139994 47.70790892 312.11179931 46.3125 313.3125 C40.2493399 318.50949437 34.05265333 322.47978825 27.06640625 326.2734375 C24.11318975 327.83875446 24.11318975 327.83875446 22.08911133 329.47753906 C19.95069608 331.03593073 17.93650169 332.04623279 15.5078125 333.0859375 C14.64510742 333.4569458 13.78240234 333.8279541 12.89355469 334.21020508 C11.97993164 334.5945874 11.06630859 334.97896973 10.125 335.375 C9.18043945 335.77420654 8.23587891 336.17341309 7.26269531 336.5847168 C-5.58097215 341.96762789 -18.33659458 346.25679624 -32 349 C-32.82862549 349.18022705 -33.65725098 349.3604541 -34.51098633 349.54614258 C-44.1160437 351.42624937 -53.69044165 351.35468969 -63.4375 351.3125 C-64.32772858 351.31034485 -65.21795715 351.3081897 -66.13516235 351.30596924 C-91.13719543 351.20868616 -115.17307384 347.88295683 -138 337 C-138.60086426 336.71398926 -139.20172852 336.42797852 -139.82080078 336.13330078 C-144.59422297 333.84447866 -149.30957529 331.4540228 -154 329 C-154.61166016 328.68160156 -155.22332031 328.36320312 -155.85351562 328.03515625 C-173.84660087 318.55683156 -190.09575285 304.69722119 -203 289 C-203.46019531 288.48953125 -203.92039063 287.9790625 -204.39453125 287.453125 C-213.47192582 277.35045997 -220.61474922 265.85537125 -226.97705078 253.91113281 C-227.92180456 252.14608924 -228.89521405 250.39646419 -229.87109375 248.6484375 C-240.86345168 228.13263361 -246.99247379 202.98483452 -247.23828125 179.71484375 C-247.24802979 178.94464905 -247.25777832 178.17445435 -247.26782227 177.38092041 C-247.44022038 160.22860061 -247.21829333 143.73898618 -243 127 C-242.81276367 126.2354248 -242.62552734 125.47084961 -242.43261719 124.68310547 C-233.77412965 90.23608294 -214.5126342 61.54645456 -189.6875 36.5625 C-189.18371826 36.05404541 -188.67993652 35.54559082 -188.16088867 35.02172852 C-181.10853359 28 -181.10853359 28 -178 28 C-178 27.34 -178 26.68 -178 26 C-176.68 25.67 -175.36 25.34 -174 25 C-174 24.34 -174 23.68 -174 23 C-172.03310625 21.55070987 -170.08134808 20.27124254 -168 19 C-167.26136719 18.54367188 -166.52273437 18.08734375 -165.76171875 17.6171875 C-159.61607917 13.87295414 -153.35279115 10.37894834 -147 7 C-145.85144531 6.36771484 -145.85144531 6.36771484 -144.6796875 5.72265625 C-100.67221896 -17.62367875 -45.83832932 -16.80371447 0 0 Z " fill="#7ED856" transform="translate(316,68)"/>
<path d="M0 0 C17.72194073 -0.74905015 32.47316402 3.88513524 45.95703125 15.62109375 C56.54954448 25.63211887 64.60457673 39.58851997 65.32104492 54.43505859 C65.38519786 56.97328356 65.40044756 59.50787012 65.40234375 62.046875 C65.41458984 62.89830078 65.42683594 63.74972656 65.43945312 64.62695312 C65.45277057 70.45555517 64.65976217 75.58605753 63.21484375 81.234375 C64.20484375 80.904375 65.19484375 80.574375 66.21484375 80.234375 C78.47173388 79.03039706 91.32384849 82.58719227 102.21484375 88.234375 C102.54484375 88.894375 102.87484375 89.554375 103.21484375 90.234375 C103.93671875 90.6675 104.65859375 91.100625 105.40234375 91.546875 C108.69671179 93.52349582 111.36776097 95.65213713 114.21484375 98.234375 C114.21484375 98.894375 114.21484375 99.554375 114.21484375 100.234375 C115.20484375 100.564375 116.19484375 100.894375 117.21484375 101.234375 C118.40234375 103.796875 118.40234375 103.796875 119.21484375 106.234375 C119.87484375 106.234375 120.53484375 106.234375 121.21484375 106.234375 C130.96897192 124.49150801 135.578949 141.28755606 129.94335938 162.03369141 C124.14106378 179.56113529 112.16833448 195.12326269 95.578125 203.578125 C93.14988905 204.58448966 90.7148975 205.42553408 88.21484375 206.234375 C87.5084375 206.53085937 86.80203125 206.82734375 86.07421875 207.1328125 C69.31397316 213.52045855 47.57989278 208.18676409 30.46484375 205.859375 C25.67936472 205.21898243 20.89289631 204.58659369 16.10546875 203.9609375 C14.94247757 203.80849075 13.77948639 203.65604401 12.58125305 203.49897766 C2.83105471 202.25030537 -6.92798547 201.37240493 -16.72875977 200.63598633 C-35.72417981 199.19762732 -35.72417981 199.19762732 -40.78515625 195.234375 C-41.44458008 192.32348633 -41.44458008 192.32348633 -41.4921875 188.81640625 C-41.52119141 187.56279297 -41.55019531 186.30917969 -41.58007812 185.01757812 C-41.58587891 183.70724609 -41.59167969 182.39691406 -41.59765625 181.046875 C-41.62079912 179.71154769 -41.64616406 178.37625692 -41.67382812 177.04101562 C-41.73283857 173.77183677 -41.76901854 170.50400128 -41.78515625 167.234375 C-42.60717529 167.04327148 -43.42919434 166.85216797 -44.27612305 166.65527344 C-47.34450807 165.9352373 -50.40974541 165.20330903 -53.47338867 164.46337891 C-54.79615371 164.14645804 -56.12004705 163.83420662 -57.44506836 163.52685547 C-59.35695496 163.08249822 -61.26448845 162.61954286 -63.171875 162.15625 C-64.89216919 161.74777832 -64.89216919 161.74777832 -66.6472168 161.33105469 C-70.18319157 160.09526548 -72.26470781 159.02024257 -74.78515625 156.234375 C-75.13818359 153.16992188 -75.13818359 153.16992188 -74.74609375 149.453125 C-74.68078461 148.76246948 -74.61547546 148.07181396 -74.54818726 147.36022949 C-74.39890893 145.82082689 -74.23708029 144.28260597 -74.06481934 142.74560547 C-73.770706 140.10461916 -73.51357912 137.46183531 -73.26269531 134.81640625 C-72.68274127 128.78498716 -72.04912814 122.75978474 -71.41015625 116.734375 C-71.18382814 114.5778005 -70.95750984 112.42122498 -70.73120117 110.26464844 C-69.51588324 98.74855609 -68.25963252 87.24280059 -66.73657227 75.76269531 C-66.0483284 70.54953051 -65.51575719 65.34514889 -65.07373047 60.10546875 C-63.54958102 42.43455251 -58.08616202 30.9747024 -45.78515625 18.234375 C-44.89570313 17.28884766 -44.89570313 17.28884766 -43.98828125 16.32421875 C-39.76072272 12.21824929 -34.99896587 9.56801066 -29.78515625 6.921875 C-29.12056396 6.58397949 -28.45597168 6.24608398 -27.77124023 5.89794922 C-18.81541991 1.54939479 -9.8209823 0.60811036 0 0 Z " fill="#F9FDF6" transform="translate(221.78515625,139.765625)"/>
<path d="M0 0 C11.07029788 8.53338805 19.23424881 18.44606029 21.68432617 32.54833984 C21.94864275 35.84597124 21.96953142 39.11656135 21.93432617 42.42333984 C21.93045898 43.30957031 21.9265918 44.19580078 21.92260742 45.10888672 C21.85330433 50.33357014 21.4217847 55.15043945 20.12963867 60.22802734 C19.22578138 64.93759955 19.5366545 69.77362239 19.68432617 74.54833984 C21.20799805 74.44005859 21.20799805 74.44005859 22.76245117 74.32958984 C40.75044459 73.09191407 54.42345233 72.5673585 69.68432617 83.54833984 C70.28245117 83.97244141 70.88057617 84.39654297 71.49682617 84.83349609 C78.19250076 89.9773086 84.44060455 98.4446976 86.14916992 106.82958984 C86.39322633 108.72854927 86.54791811 110.63862697 86.68432617 112.54833984 C87.34432617 112.54833984 88.00432617 112.54833984 88.68432617 112.54833984 C89.11003015 131.39756615 86.50852959 147.42318557 73.29370117 161.96630859 C62.98219876 172.10261557 51.06019218 176.81173952 36.83300781 176.87182617 C25.03993903 176.72769661 13.37995005 174.9216323 1.71200562 173.34585571 C-4.86990742 172.46114002 -11.46370058 171.7052919 -18.06567383 170.98583984 C-19.13736816 170.86837402 -20.2090625 170.7509082 -21.31323242 170.62988281 C-24.64707149 170.26645486 -27.9813029 169.90685412 -31.31567383 169.54833984 C-33.23935791 169.34096191 -33.23935791 169.34096191 -35.2019043 169.12939453 C-43.23921741 168.26331161 -51.27716241 167.4032277 -59.31567383 166.54833984 C-59.49802989 156.26548407 -58.96498322 146.15816496 -58.06567383 135.92333984 C-57.9994281 135.15066772 -57.93318237 134.37799561 -57.8649292 133.58190918 C-56.48134814 117.47661566 -54.77362043 101.41340958 -52.87915039 85.36083984 C-52.48046726 81.97650195 -52.09338098 78.59104833 -51.71313477 75.20458984 C-51.19862717 70.62407755 -50.66836427 66.04562684 -50.12762451 61.46813965 C-49.92196906 59.7080573 -49.72121055 57.94739487 -49.5256958 56.18615723 C-49.2512898 53.72683252 -48.9576224 51.27050314 -48.65942383 48.81396484 C-48.58339935 48.09466797 -48.50737488 47.37537109 -48.42904663 46.63427734 C-47.62256068 40.28316547 -45.51410348 34.74676949 -40.94067383 30.17333984 C-35.83301827 27.01145783 -31.30415516 25.93934174 -25.31567383 26.54833984 C-22.20658547 27.67845255 -19.26417618 29.05307083 -16.31567383 30.54833984 C-15.65567383 30.87833984 -14.99567383 31.20833984 -14.31567383 31.54833984 C-8.18985169 43.37848259 -11.86022005 57.53063793 -13.58911133 70.03271484 C-14.2917188 75.18981882 -14.7248848 80.3326296 -15.05615234 85.52612305 C-15.29277378 88.28166095 -15.68441439 90.91909879 -16.17895508 93.63818359 C-17.5748968 101.79679925 -18.58129982 110.00167845 -19.6027832 118.21386719 C-19.94265541 120.93922975 -20.28913633 123.66370131 -20.63598633 126.38818359 C-20.85513495 128.1368316 -21.07389878 129.88552788 -21.29223633 131.63427734 C-21.39533112 132.44061615 -21.4984259 133.24695496 -21.60464478 134.07772827 C-22.92285484 142.16424157 -22.92285484 142.16424157 -20.31567383 149.54833984 C-17.21366242 150.34498558 -17.21366242 150.34498558 -13.48364258 150.71630859 C-12.43983429 150.8437294 -12.43983429 150.8437294 -11.37493896 150.97372437 C-9.08598284 151.24546955 -6.79537482 151.49307059 -4.50317383 151.73583984 C-3.72289825 151.8213913 -2.94262268 151.90694275 -2.13870239 151.99508667 C8.81534527 153.1803118 19.726873 153.98144846 30.74682617 154.11083984 C31.90867432 154.13750732 33.07052246 154.1641748 34.26757812 154.19165039 C42.90541536 154.15425167 49.75047222 152.18715475 56.18432617 146.23583984 C56.67932617 145.67896484 57.17432617 145.12208984 57.68432617 144.54833984 C58.34432617 144.54833984 59.00432617 144.54833984 59.68432617 144.54833984 C59.95245117 143.82646484 60.22057617 143.10458984 60.49682617 142.36083984 C61.68432617 139.54833984 61.68432617 139.54833984 63.24682617 137.11083984 C66.9412414 130.52514314 66.7356851 121.01344854 65.03588867 113.79443359 C62.01324021 105.33360136 56.40294338 99.92387849 48.59472656 95.69213867 C42.37634305 93.24828943 35.59806678 92.93977912 28.99682617 92.29833984 C27.51811983 92.13863761 26.03960102 91.97718906 24.5612793 91.81396484 C16.46206272 90.93844663 8.36931521 90.27345277 0.23583984 89.80322266 C-2.31567383 89.54833984 -2.31567383 89.54833984 -3.31567383 88.54833984 C-3.27599581 86.17681531 -3.16834131 83.84966177 -3.00317383 81.48583984 C-2.95612305 80.77790283 -2.90907227 80.06996582 -2.8605957 79.34057617 C-1.48206363 60.04750925 -1.48206363 60.04750925 0.68432617 53.54833984 C1.29395752 44.65371849 1.78567739 36.25633761 -3.31567383 28.54833984 C-3.71657227 27.92701172 -4.1174707 27.30568359 -4.53051758 26.66552734 C-8.79671623 20.95253089 -15.10730827 16.36013553 -22.25170898 15.24658203 C-32.77263622 14.35043834 -41.87826349 15.76172718 -50.31567383 22.54833984 C-54.61597619 27.53792512 -58.20624347 32.39469044 -59.10595703 39.0300293 C-59.22997894 39.92073624 -59.35400085 40.81144318 -59.48178101 41.72914124 C-59.60872345 42.69685959 -59.73566589 43.66457794 -59.86645508 44.66162109 C-60.00564362 45.68400375 -60.14483215 46.70638641 -60.28823853 47.75975037 C-60.74314557 51.12573066 -61.1862825 54.49312781 -61.62817383 57.86083984 C-61.78085724 59.00629272 -61.93354065 60.15174561 -62.09085083 61.33190918 C-65.2903961 85.35597833 -67.91124348 109.43316896 -70.31567383 133.54833984 C-72.19636525 133.42117903 -74.07647103 133.28534296 -75.95629883 133.14599609 C-77.00333984 133.07131104 -78.05038086 132.99662598 -79.12915039 132.91967773 C-83.72657103 132.38392254 -87.96198499 131.07983658 -92.31567383 129.54833984 C-91.59594945 118.39708624 -90.30294249 107.33106437 -89.00317383 96.23583984 C-87.63874315 84.55239821 -86.31114266 72.87193903 -85.23754883 61.15771484 C-85.15314041 60.25144852 -85.06873199 59.34518219 -84.98176575 58.41145325 C-84.5819617 54.11095101 -84.19638967 49.81008105 -83.8359375 45.50610352 C-82.46576286 30.09050207 -78.36796255 17.84103701 -66.99536133 6.92333984 C-64.92052474 5.22486896 -62.89930987 4.25296786 -60.31567383 3.54833984 C-60.31567383 2.88833984 -60.31567383 2.22833984 -60.31567383 1.54833984 C-41.4080108 -7.74016234 -18.75763449 -13.42434847 0 0 Z " fill="#7FD858" transform="translate(252.315673828125,159.45166015625)"/>
<path d="M0 0 C9.25824258 5.80183202 16.99177151 12.53617012 20.578125 23.0390625 C22.94163462 33.62662091 22.63385195 44.85389317 17.34375 54.46875 C16.6752398 55.80115997 16.00802182 57.13422193 15.34375 58.46875 C14.68375 58.46875 14.02375 58.46875 13.34375 58.46875 C13.075625 59.06816406 12.8075 59.66757813 12.53125 60.28515625 C8.65809228 67.40717983 -0.11616339 71.64499478 -7.54296875 74.08984375 C-17.13478301 75.809633 -27.64500471 75.21833865 -36.0234375 69.9921875 C-45.05584166 63.33192989 -51.88181283 55.5420543 -54.65625 44.46875 C-56.31481874 32.27954126 -54.56227489 21.82778734 -47.65625 11.46875 C-46.99625 11.46875 -46.33625 11.46875 -45.65625 11.46875 C-45.45 10.911875 -45.24375 10.355 -45.03125 9.78125 C-36.99294202 -3.73772251 -13.2427463 -6.34926192 0 0 Z " fill="#F6FEFB" transform="translate(357.65625,141.53125)"/>
<path d="M0 0 C7.66648335 -0.1796832 15.22827992 0.41131183 22.85644531 1.11694336 C24.99464663 1.31201161 27.13382178 1.49113005 29.2734375 1.66992188 C47.83407307 3.3116028 47.83407307 3.3116028 53.9375 8.9375 C54.48277344 9.42089844 55.02804687 9.90429688 55.58984375 10.40234375 C59.35031691 14.66282442 59.42991784 18.67915844 59.3125 24.17578125 C58.84476172 28.40296594 57.59710952 31.6301309 55 35 C52 37.375 52 37.375 49 39 C48.39164307 39.359729 47.78328613 39.71945801 47.15649414 40.09008789 C39.72146067 43.22722926 28.93136298 40.7872637 21.0625 40.0625 C18.97007735 39.87861847 16.87762959 39.69502255 14.78515625 39.51171875 C13.79273926 39.42325684 12.80032227 39.33479492 11.77783203 39.24365234 C6.52209285 38.78265501 1.26110158 38.39420195 -4 38 C-4.20448681 30.04180786 -3.6141103 22.38463166 -2.5625 14.5 C-2.42779297 13.43007813 -2.29308594 12.36015625 -2.15429688 11.2578125 C-1.14406154 3.43218461 -1.14406154 3.43218461 0 0 Z " fill="#7FD858" transform="translate(247,261)"/>
<path d="M0 0 C-0.66 0.66 -1.32 1.32 -2 2 C-1.505 2.99 -1.505 2.99 -1 4 C-4.3 4 -7.6 4 -11 4 C-11 3.67 -11 3.34 -11 3 C-9.02 3 -7.04 3 -5 3 C-5 2.34 -5 1.68 -5 1 C-8.3 1 -11.6 1 -15 1 C-15 1.66 -15 2.32 -15 3 C-16.98 3.33 -18.96 3.66 -21 4 C-20.67 3.01 -20.34 2.02 -20 1 C-23.93288364 0.06912091 -27.57654163 -0.11608885 -31.61328125 -0.09765625 C-33.4840332 -0.09282227 -33.4840332 -0.09282227 -35.39257812 -0.08789062 C-36.68615234 -0.07951172 -37.97972656 -0.07113281 -39.3125 -0.0625 C-40.62541016 -0.05798828 -41.93832031 -0.05347656 -43.29101562 -0.04882812 C-46.5273901 -0.03705949 -49.76367178 -0.0206176 -53 0 C-53 0.66 -53 1.32 -53 2 C-59.93 2 -66.86 2 -74 2 C-74 1.67 -74 1.34 -74 1 C-49.94275659 -3.91027176 -24.19337188 -5.18603855 0 0 Z " fill="#7ABD5C" transform="translate(285,59)"/>
<path d="M0 0 C0.33 0 0.66 0 1 0 C1.23391145 8.47279265 0.60060151 16.80621772 -0.22680664 25.22705078 C-0.43913998 27.39171905 -0.64299929 29.55706704 -0.84570312 31.72265625 C-1.85564724 42.29482749 -1.85564724 42.29482749 -2.4942627 45.414505 C-2.97154852 47.85454672 -3.26455728 50.22315589 -3.48071289 52.69848633 C-3.56072037 53.59904251 -3.64072784 54.49959869 -3.72315979 55.42744446 C-3.84666054 56.86521492 -3.84666054 56.86521492 -3.97265625 58.33203125 C-4.06002548 59.32377853 -4.14739471 60.31552582 -4.2374115 61.33732605 C-4.51503557 64.49549625 -4.78881818 67.65398597 -5.0625 70.8125 C-5.25039758 72.95770451 -5.43854573 75.10288708 -5.62695312 77.24804688 C-6.08754 82.49844718 -6.54497591 87.74911483 -7 93 C-5.68 93.33 -4.36 93.66 -3 94 C-4.65 94 -6.3 94 -8 94 C-8.18236008 83.71691793 -7.64783952 73.61009125 -6.75 63.375 C-6.65262543 62.23194397 -6.65262543 62.23194397 -6.55328369 61.0657959 C-4.81371776 40.66691875 -2.55928676 20.3117107 0 0 Z " fill="#95D67A" transform="translate(201,232)"/>
<path d="M0 0 C0.65234375 1.8125 0.65234375 1.8125 1 4 C-3.91487642 10.04907868 -9.88320589 13.87664133 -17.70874023 14.85913086 C-23.15421451 15.19392454 -28.61729524 14.84759396 -34.0625 14.625 C-35.91391602 14.55925781 -35.91391602 14.55925781 -37.80273438 14.4921875 C-61.82584359 13.5870782 -61.82584359 13.5870782 -65 12 C-67.36950521 11.61076473 -69.7457572 11.2619422 -72.125 10.9375 C-74.04699219 10.67259766 -74.04699219 10.67259766 -76.0078125 10.40234375 C-76.99523437 10.26957031 -77.98265625 10.13679688 -79 10 C-79 9.67 -79 9.34 -79 9 C-70.85474932 9.38306872 -62.81799301 9.82059278 -54.75 11.0625 C-46.88471904 12.0870356 -39.05259191 12.32593456 -31.125 12.4375 C-29.2702002 12.48886108 -29.2702002 12.48886108 -27.37792969 12.54125977 C-18.27336403 12.5848546 -11.30265809 10.97995873 -4.5 4.6875 C-4.005 4.130625 -3.51 3.57375 -3 3 C-2.34 3 -1.68 3 -1 3 C-0.67 2.01 -0.34 1.02 0 0 Z " fill="#95D577" transform="translate(313,301)"/>
<path d="M0 0 C1.73030291 0.28484846 3.45920714 0.57819938 5.1875 0.875 C6.15042969 1.03742188 7.11335937 1.19984375 8.10546875 1.3671875 C11 2 11 2 16 4 C16.33 13.24 16.66 22.48 17 32 C20.79707183 33.89853591 22.95569754 34.40698699 27.078125 34.8515625 C28.23828125 34.98046875 29.3984375 35.109375 30.59375 35.2421875 C32.40359375 35.43167969 32.40359375 35.43167969 34.25 35.625 C35.47203125 35.7590625 36.6940625 35.893125 37.953125 36.03125 C40.96807616 36.36101028 43.98361676 36.6836538 47 37 C47 37.33 47 37.66 47 38 C29.98340302 38.18586089 29.98340302 38.18586089 23 37 C21.63875 36.8453125 21.63875 36.8453125 20.25 36.6875 C17.19194835 35.75309533 15.98959365 34.49836707 14 32 C13.57421875 29.00390625 13.57421875 29.00390625 13.6875 25.5625 C13.72230469 24.33402344 13.75710937 23.10554688 13.79296875 21.83984375 C14.09616047 16.21649547 14.47837962 10.60741907 15 5 C13.72125 5.020625 12.4425 5.04125 11.125 5.0625 C7.25 5.125 7.25 5.125 5 4 C5 3.34 5 2.68 5 2 C3.35 1.67 1.7 1.34 0 1 C0 0.67 0 0.34 0 0 Z " fill="#8CD26C" transform="translate(165,303)"/>
<path d="M0 0 C5.40540541 1.40540541 5.40540541 1.40540541 7 3 C25.22960824 6.19642446 43.55717721 6.14228884 62 6 C62 6.66 62 7.32 62 8 C25.32602315 8.56997095 25.32602315 8.56997095 12.625 6.6875 C11.82682861 6.56979248 11.02865723 6.45208496 10.20629883 6.33081055 C5.43524673 5.51430398 1.37766513 4.06177632 -3 2 C-2.01 1.34 -1.02 0.68 0 0 Z " fill="#87CE68" transform="translate(207,411)"/>
<path d="M0 0 C5.88365566 9.86860173 0.95690998 25.91143876 -1.60058594 36.48242188 C-2.23170121 38.9742225 -2.88802134 41.45710284 -3.5625 43.9375 C-3.77221436 44.71311279 -3.98192871 45.48872559 -4.19799805 46.2878418 C-5.74944319 51.74944319 -5.74944319 51.74944319 -8 54 C-7.421195 48.61771017 -6.47677204 43.61581187 -5.0625 38.375 C-2.32690076 27.81350927 -0.68253723 17.46729658 -1.02734375 6.5234375 C-1.0016988 4.15677452 -0.68291595 2.2552108 0 0 Z " fill="#81C863" transform="translate(429,244)"/>
<path d="M0 0 C0.33 0 0.66 0 1 0 C1.02684679 2.64590014 1.04676357 5.29153096 1.0625 7.9375 C1.07087891 8.69224609 1.07925781 9.44699219 1.08789062 10.22460938 C1.09652441 12.14994313 1.05224333 14.07535581 1 16 C0.67 16.33 0.34 16.66 0 17 C-0.07313567 19.53049402 -0.09247527 22.03304837 -0.0625 24.5625 C-0.05798828 25.27341797 -0.05347656 25.98433594 -0.04882812 26.71679688 C-0.03700864 28.47790013 -0.01907263 30.23896036 0 32 C0.85980469 31.98839844 1.71960938 31.97679687 2.60546875 31.96484375 C19.82432247 31.83340212 19.82432247 31.83340212 27 33 C27.66 33.66 28.32 34.32 29 35 C22.10513939 35.10684185 15.36307432 34.70591322 8.5 34.0625 C7.4996875 33.97548828 6.499375 33.88847656 5.46875 33.79882812 C4.52 33.71181641 3.57125 33.62480469 2.59375 33.53515625 C1.73458984 33.456604 0.87542969 33.37805176 -0.00976562 33.29711914 C-2 33 -2 33 -3 32 C-2.96032244 29.62850272 -2.85244897 27.30130958 -2.6875 24.9375 C-2.64117432 24.23173828 -2.59484863 23.52597656 -2.54711914 22.79882812 C-2.00601527 15.16090637 -1.03874558 7.58385125 0 0 Z " fill="#9AD57D" transform="translate(252,216)"/>
<path d="M0 0 C0.6290625 0.40992188 1.258125 0.81984375 1.90625 1.2421875 C11.79798393 7.46921278 20.31777253 9.13686106 32 8 C34.85956825 7.12603988 37.42947887 6.09510725 40.109375 4.77734375 C40.73328125 4.52082031 41.3571875 4.26429688 42 4 C42.66 4.33 43.32 4.66 44 5 C41.53881276 8.81484022 41.53881276 8.81484022 39.20043945 9.6184082 C34.89804947 10.36451222 30.5424317 10.18464805 26.1875 10.1875 C24.72860352 10.20586914 24.72860352 10.20586914 23.24023438 10.22460938 C17.73155801 10.23579829 13.1968586 9.8400045 8 8 C6.79537109 7.57847656 6.79537109 7.57847656 5.56640625 7.1484375 C3.7109375 6.43229167 1.85546875 5.71614583 0 5 C0 3.35 0 1.7 0 0 Z " fill="#91D476" transform="translate(316,207)"/>
<path d="M0 0 C0.33 0 0.66 0 1 0 C1.0270043 1.45823212 1.04639787 2.91660675 1.0625 4.375 C1.07410156 5.18710938 1.08570313 5.99921875 1.09765625 6.8359375 C1 9 1 9 0 11 C-0.20586578 13.12156123 -0.36614622 15.24768104 -0.5 17.375 C-0.73348779 21.06911045 -1.10402707 24.4231632 -2 28 C-2.17311396 30.10209807 -2.3162537 32.20677351 -2.4375 34.3125 C-2.77713659 39.1769725 -3.39710212 43.40502607 -5 48 C-5.33 48 -5.66 48 -6 48 C-5.65790121 37.29230799 -4.41444896 26.73399609 -3 16.125 C-2.91036987 15.44435486 -2.82073975 14.76370972 -2.72839355 14.06243896 C-1.1789746 2.3579492 -1.1789746 2.3579492 0 0 Z " fill="#E2F9D5" transform="translate(194,192)"/>
<path d="M0 0 C5.28 0 10.56 0 16 0 C16 0.66 16 1.32 16 2 C18.93774463 2.05390357 21.87450232 2.0936255 24.8125 2.125 C25.64587891 2.14175781 26.47925781 2.15851563 27.33789062 2.17578125 C28.54155273 2.18544922 28.54155273 2.18544922 29.76953125 2.1953125 C30.87711792 2.21102295 30.87711792 2.21102295 32.00708008 2.22705078 C34.31890676 2.11741479 34.31890676 2.11741479 37 0 C39.04296875 -0.1953125 39.04296875 -0.1953125 41.1875 -0.125 C43.0746875 -0.063125 43.0746875 -0.063125 45 0 C40.76975827 4.23024173 34.76597636 4.24983442 29.08300781 4.27734375 C28.25124023 4.26832031 27.41947266 4.25929688 26.5625 4.25 C25.69592773 4.24613281 24.82935547 4.24226563 23.93652344 4.23828125 C15.85524567 4.13175397 7.98084128 3.24839975 0 2 C0 1.34 0 0.68 0 0 Z " fill="#8ED56F" transform="translate(264,332)"/>
<path d="M0 0 C9.89644867 -0.22867275 19.22907228 0.12612345 29 2 C28.34 2.66 27.68 3.32 27 4 C27.33 4.66 27.66 5.32 28 6 C24.7 6 21.4 6 18 6 C18 5.67 18 5.34 18 5 C19.98 5 21.96 5 24 5 C24 4.34 24 3.68 24 3 C20.7 3 17.4 3 14 3 C14 3.66 14 4.32 14 5 C12.02 5.33 10.04 5.66 8 6 C8.33 5.01 8.66 4.02 9 3 C4.545 2.01 4.545 2.01 0 1 C0 0.67 0 0.34 0 0 Z " fill="#7FCB5E" transform="translate(256,57)"/>
<path d="M0 0 C0.33 0 0.66 0 1 0 C0.67 2.97 0.34 5.94 0 9 C-0.99 9 -1.98 9 -3 9 C-3.17982422 10.09828125 -3.17982422 10.09828125 -3.36328125 11.21875 C-4.97475611 18.25783039 -8.93486692 24.12863846 -15 28 C-17.18359375 27.6171875 -17.18359375 27.6171875 -19 27 C-18.5153125 26.65710938 -18.030625 26.31421875 -17.53125 25.9609375 C-8.91073995 19.2303085 -4.75817915 9.61884216 0 0 Z " fill="#8BD36A" transform="translate(349,306)"/>
<path d="M0 0 C0.66 0.33 1.32 0.66 2 1 C2.22201613 3.9162118 2.42808498 6.83207744 2.625 9.75 C2.68945312 10.575 2.75390625 11.4 2.8203125 12.25 C2.871875 13.04921875 2.9234375 13.8484375 2.9765625 14.671875 C3.02893066 15.4050293 3.08129883 16.13818359 3.13525391 16.89355469 C2.9760038 19.37371701 2.2210186 20.85484666 1 23 C0.28341854 24.57961754 -0.42486392 26.16302488 -1.125 27.75 C-1.47820312 28.54921875 -1.83140625 29.3484375 -2.1953125 30.171875 C-2.46085937 30.77515625 -2.72640625 31.3784375 -3 32 C-3.99 32 -4.98 32 -6 32 C-5.731875 31.360625 -5.46375 30.72125 -5.1875 30.0625 C-4.795625 29.051875 -4.40375 28.04125 -4 27 C-3.62101562 26.15695313 -3.62101562 26.15695313 -3.234375 25.296875 C-0.00407213 17.25278745 -0.26742749 8.54845795 0 0 Z " fill="#92D777" transform="translate(379,168)"/>
<path d="M0 0 C5.5670417 11.1340834 0.69343536 27.1879881 -1 39 C-1.33 39 -1.66 39 -2 39 C-2.33 33.06 -2.66 27.12 -3 21 C-2.34 20.67 -1.68 20.34 -1 20 C-0.67 13.4 -0.34 6.8 0 0 Z " fill="#91D474" transform="translate(239,196)"/>
<path d="M0 0 C0 0.66 0 1.32 0 2 C-5.39459439 5.08467498 -9.79011871 6.55643705 -16 7 C-16 7.66 -16 8.32 -16 9 C-22.6 8.67 -29.2 8.34 -36 8 C-36 7.67 -36 7.34 -36 7 C-35.030625 6.98582031 -34.06125 6.97164063 -33.0625 6.95703125 C-21.75177702 6.61557546 -10.45816305 0 0 0 Z " fill="#8BD168" transform="translate(320,342)"/>
<path d="M0 0 C-2.89362649 1.44681324 -5.8083009 1.43242376 -9.00390625 1.71875 C-10.99583131 1.79532012 -10.99583131 1.79532012 -12 3 C-14.53608759 2.93428277 -17.03426922 2.80740024 -19.5625 2.625 C-20.28888672 2.57609619 -21.01527344 2.52719238 -21.76367188 2.47680664 C-26.53548254 2.14245892 -31.26512122 1.69050316 -36 1 C-36 0.67 -36 0.34 -36 0 C-31.51618182 -0.16797178 -27.03217687 -0.32849276 -22.54785156 -0.48217773 C-21.02303937 -0.53547812 -19.49829635 -0.59079772 -17.97363281 -0.64819336 C-15.77944855 -0.73043951 -13.58511635 -0.80537075 -11.390625 -0.87890625 C-10.7113092 -0.90594131 -10.03199341 -0.93297638 -9.33209229 -0.96083069 C-6.04687715 -1.06392959 -3.13890215 -1.03583771 0 0 Z " fill="#152F0C" transform="translate(276,419)"/>
<path d="M0 0 C0.66 0.33 1.32 0.66 2 1 C1.67 1.66 1.34 2.32 1 3 C1.66 3 2.32 3 3 3 C2.80078125 4.87109375 2.80078125 4.87109375 2 7 C-0.14453125 8.16015625 -0.14453125 8.16015625 -2.8125 9.0625 C-6.38890673 10.29337558 -9.06984652 11.58894131 -12 14 C-12.66 13.67 -13.32 13.34 -14 13 C-12.75323147 11.72599623 -11.5024352 10.45593346 -10.25 9.1875 C-9.55390625 8.47980469 -8.8578125 7.77210937 -8.140625 7.04296875 C-2.85659656 2 -2.85659656 2 0 2 C0 1.34 0 0.68 0 0 Z " fill="#79CB56" transform="translate(138,94)"/>
<path d="M0 0 C2 2 2 2 2.22705078 4.79736328 C2.21657715 5.95993652 2.20610352 7.12250977 2.1953125 8.3203125 C2.18886719 9.57714844 2.18242187 10.83398438 2.17578125 12.12890625 C2.15902344 13.44761719 2.14226562 14.76632813 2.125 16.125 C2.11496983 17.46483721 2.10584404 18.80468152 2.09765625 20.14453125 C2.07402075 23.42986573 2.04107234 26.71484465 2 30 C2.90363281 30.04898438 3.80726563 30.09796875 4.73828125 30.1484375 C5.91777344 30.22320312 7.09726562 30.29796875 8.3125 30.375 C9.48425781 30.44460937 10.65601563 30.51421875 11.86328125 30.5859375 C15 31 15 31 18 33 C11.73 33 5.46 33 -1 33 C-0.505 28.545 -0.505 28.545 0 24 C0.07188378 21.95803681 0.10882126 19.91429132 0.09765625 17.87109375 C0.09443359 16.81728516 0.09121094 15.76347656 0.08789062 14.67773438 C0.07951172 13.60845703 0.07113281 12.53917969 0.0625 11.4375 C0.05798828 10.33341797 0.05347656 9.22933594 0.04882812 8.09179688 C0.0371514 5.394473 0.02077525 2.69726653 0 0 Z " fill="#9AD47E" transform="translate(286,188)"/>
<path d="M0 0 C0.33 0 0.66 0 1 0 C1 7.92 1 15.84 1 24 C4.3 24.66 7.6 25.32 11 26 C11 26.33 11 26.66 11 27 C6.71 27 2.42 27 -2 27 C-2.25503462 17.81875361 -1.27410908 9.06665123 0 0 Z " fill="#9ED985" transform="translate(245,272)"/>
<path d="M0 0 C6.60246686 -0.1074664 13.00121203 0.28754907 19.5625 1 C20.93245117 1.14308594 20.93245117 1.14308594 22.33007812 1.2890625 C24.55385532 1.52191875 26.77709776 1.75895855 29 2 C29 2.33 29 2.66 29 3 C21.08 3 13.16 3 5 3 C5 2.34 5 1.68 5 1 C3.68 1 2.36 1 1 1 C1 3.64 1 6.28 1 9 C0.01 9.495 0.01 9.495 -1 10 C-1.125 3.375 -1.125 3.375 0 0 Z " fill="#98D77D" transform="translate(247,261)"/>
<path d="M0 0 C1.73030291 0.28484846 3.45920714 0.57819938 5.1875 0.875 C6.15042969 1.03742188 7.11335937 1.19984375 8.10546875 1.3671875 C11 2 11 2 16 4 C16 12.91 16 21.82 16 31 C15.67 31 15.34 31 15 31 C15 22.42 15 13.84 15 5 C12.36 5 9.72 5 7 5 C6.34 4.67 5.68 4.34 5 4 C5 3.34 5 2.68 5 2 C3.35 1.67 1.7 1.34 0 1 C0 0.67 0 0.34 0 0 Z " fill="#9FDB88" transform="translate(165,303)"/>
<path d="M0 0 C2.92844578 4.39266868 3.19224323 7.2673802 3.1875 12.4375 C3.18814453 13.15164062 3.18878906 13.86578125 3.18945312 14.6015625 C3.13070086 20.55156486 2.37530097 26.20408877 1 32 C0.67 32 0.34 32 0 32 C0 21.44 0 10.88 0 0 Z " fill="#DFF9D3" transform="translate(251,192)"/>
<path d="M0 0 C0.33 0 0.66 0 1 0 C1.19632025 3.6245793 1.38055978 7.24967267 1.5625 10.875 C1.61857422 11.90753906 1.67464844 12.94007813 1.73242188 14.00390625 C1.78076172 14.99003906 1.82910156 15.97617187 1.87890625 16.9921875 C1.94960327 18.35899658 1.94960327 18.35899658 2.02172852 19.75341797 C2 22 2 22 1 24 C0.34 24 -0.32 24 -1 24 C-1.12375 25.134375 -1.2475 26.26875 -1.375 27.4375 C-1.58125 28.613125 -1.7875 29.78875 -2 31 C-2.66 31.33 -3.32 31.66 -4 32 C-3.79503906 30.86304688 -3.59007812 29.72609375 -3.37890625 28.5546875 C-1.70213985 19.02435739 -0.45124303 9.67838495 0 0 Z " fill="#8DD46D" transform="translate(354,274)"/>
<path d="M0 0 C2.64630909 0.46699572 5.02596348 1.01025718 7.53125 2 C12.15208402 3.33213233 16.5884979 3.46112546 21.375 3.625 C22.30183594 3.66367188 23.22867187 3.70234375 24.18359375 3.7421875 C26.4555377 3.83587591 28.72748596 3.92159348 31 4 C23.97009581 7.81903013 14.83500604 6.79247223 7.3125 4.6875 C4.09676261 3.66603048 2.23704689 2.53531981 0 0 Z " fill="#E3FBDA" transform="translate(321,210)"/>
<path d="M0 0 C0.66 0.33 1.32 0.66 2 1 C-2.5649303 7.9970653 -2.5649303 7.9970653 -7 10 C-9.40188688 12.67638824 -10.85885393 14.5765618 -12 18 C-14.0625 18.6875 -14.0625 18.6875 -16 19 C-16.33 18.01 -16.66 17.02 -17 16 C-15.04709472 14.16056628 -13.08818082 12.32840869 -11.125 10.5 C-10.29162109 9.71302734 -10.29162109 9.71302734 -9.44140625 8.91015625 C-5.2265625 5 -5.2265625 5 -3 5 C-3 4.34 -3 3.68 -3 3 C-1.5 1.375 -1.5 1.375 0 0 Z " fill="#0F220A" transform="translate(379,365)"/>
<path d="M0 0 C0.66 0.33 1.32 0.66 2 1 C2.6053938 10.33651766 2.13668843 17.03813293 -3 25 C-3.66 25 -4.32 25 -5 25 C-4.71125 24.34 -4.4225 23.68 -4.125 23 C-1.27374104 15.39664278 -0.5104611 8.05991203 0 0 Z " fill="#85D165" transform="translate(319,276)"/>
<path d="M0 0 C0.33 0.33 0.66 0.66 1 1 C3.52195967 1.39943176 6.02963656 1.75079848 8.5625 2.0625 C9.27341797 2.15337891 9.98433594 2.24425781 10.71679688 2.33789062 C12.47738403 2.56239503 14.23863478 2.78168397 16 3 C16 3.66 16 4.32 16 5 C7.81614467 4.62268394 -0.31283755 4.06606288 -8 1 C-8.33 0.34 -8.66 -0.32 -9 -1 C-5.21801096 -2.26066301 -3.63636792 -1.42292658 0 0 Z " fill="#7FC45F" transform="translate(213,413)"/>
<path d="M0 0 C0.66 0.33 1.32 0.66 2 1 C1.3125 2.9375 1.3125 2.9375 0 5 C-2.125 5.5625 -2.125 5.5625 -5 6 C-6.2576135 6.48052918 -7.50712321 6.98254731 -8.75 7.5 C-13.10361365 9.20322672 -17.35993962 9.68851447 -22 10 C-19.84539841 7.84539841 -18.51588374 7.31341093 -15.68359375 6.30859375 C-14.83732422 6.00373047 -13.99105469 5.69886719 -13.11914062 5.38476562 C-12.23419922 5.07216797 -11.34925781 4.75957031 -10.4375 4.4375 C-8.68532976 3.81363083 -6.93397994 3.18745103 -5.18359375 2.55859375 C-4.40556396 2.28329834 -3.62753418 2.00800293 -2.82592773 1.72436523 C-1.01241058 1.14458622 -1.01241058 1.14458622 0 0 Z " fill="#122A0A" transform="translate(326,402)"/>
<path d="M0 0 C0.33 0 0.66 0 1 0 C1.16581968 4.47713149 1.00430543 8.3791496 0 12.75 C-1.2734294 18.50733574 -1.18152391 24.13072706 -1 30 C-2.65 29.67 -4.3 29.34 -6 29 C-5.81824219 28.33097656 -5.63648438 27.66195312 -5.44921875 26.97265625 C-3.11623736 18.05947094 -1.51677252 9.0791206 0 0 Z " fill="#94D877" transform="translate(273,204)"/>
<path d="M0 0 C24.8651837 1.08481858 24.8651837 1.08481858 34 9 C33.34 9.33 32.68 9.66 32 10 C30.33550792 9.04886167 28.67323236 8.0935967 27.0234375 7.1171875 C18.68544406 2.51358494 9.29716937 1.96964343 0 1 C0 0.67 0 0.34 0 0 Z " fill="#E9FDDD" transform="translate(275,251)"/>
<path d="M0 0 C0 0.33 0 0.66 0 1 C-0.99628418 1.06731323 -0.99628418 1.06731323 -2.01269531 1.13598633 C-19.24350083 2.15390931 -19.24350083 2.15390931 -36 6 C-36 5.34 -36 4.68 -36 4 C-25.27020523 -1.73919255 -11.85775667 -0.13699591 0 0 Z " fill="#A5DE8A" transform="translate(232,139)"/>
<path d="M0 0 C0.66 1.32 1.32 2.64 2 4 C2.66 3.67 3.32 3.34 4 3 C4.36923077 8.53846154 4.36923077 8.53846154 2.5 10.875 C1.7575 11.431875 1.7575 11.431875 1 12 C0.34 11.34 -0.32 10.68 -1 10 C-1.33 11.65 -1.66 13.3 -2 15 C-2.33 15 -2.66 15 -3 15 C-3.3152595 9.01006953 -2.68219822 5.36439644 0 0 Z " fill="#83D260" transform="translate(75,193)"/>
<path d="M0 0 C0.99 0.33 1.98 0.66 3 1 C2 3 1 5 0 7 C-0.66 7 -1.32 7 -2 7 C-2.28875 7.598125 -2.5775 8.19625 -2.875 8.8125 C-4 11 -4 11 -6 14 C-5.87952582 8.97294083 -5.75412763 5.90127449 -2.4375 1.9375 C-1.633125 1.298125 -0.82875 0.65875 0 0 Z " fill="#83D65B" transform="translate(312,146)"/>
<path d="M0 0 C3.88014936 1.52059907 5.73906562 3.86078531 8.25 7.125 C8.95640625 8.03507812 9.6628125 8.94515625 10.390625 9.8828125 C11.18726563 10.93082031 11.18726563 10.93082031 12 12 C11.01 12.495 11.01 12.495 10 13 C9.67 13.66 9.34 14.32 9 15 C7.9375 13.125 7.9375 13.125 7 11 C7.33 10.34 7.66 9.68 8 9 C6.824375 8.9071875 6.824375 8.9071875 5.625 8.8125 C4.75875 8.544375 3.8925 8.27625 3 8 C1.75 5.625 1.75 5.625 1 3 C0.67 2.01 0.34 1.02 0 0 Z " fill="#7FC85F" transform="translate(386,119)"/>
<path d="M0 0 C2.85520781 -0.10876982 5.70620561 -0.18766466 8.5625 -0.25 C9.36236328 -0.28351563 10.16222656 -0.31703125 10.98632812 -0.3515625 C16.85890193 -0.44744126 20.14222742 0.68758595 25 4 C24.67 4.99 24.34 5.98 24 7 C23.02933594 6.36578125 22.05867188 5.7315625 21.05859375 5.078125 C16.81857943 2.65525968 12.87010838 2.14548449 8.0625 1.75 C7.28326172 1.67265625 6.50402344 1.5953125 5.70117188 1.515625 C3.8021516 1.3292181 1.90121236 1.16253334 0 1 C0 0.67 0 0.34 0 0 Z " fill="#E4FBD8" transform="translate(276,263)"/>
<path d="M0 0 C5.66021072 2.5818505 10.75219392 5.35396211 15 10 C15 10.66 15 11.32 15 12 C11.73639975 11.63737775 10.87056904 10.86733326 8.5 8.4375 C6.10460315 5.53459991 6.10460315 5.53459991 2 6 C2 5.01 2 4.02 2 3 C1.34 2.67 0.68 2.34 0 2 C0 1.34 0 0.68 0 0 Z " fill="#91D375" transform="translate(313,238)"/>
<path d="M0 0 C0.96099609 0.59748047 0.96099609 0.59748047 1.94140625 1.20703125 C6.85576818 4.21716948 11.63190525 6.89944118 17 9 C14.31511509 10.34244245 12.78295056 9.52907533 10.01953125 8.6796875 C6.64324699 7.54337519 3.323381 6.28270846 0 5 C0 3.35 0 1.7 0 0 Z " fill="#88D369" transform="translate(316,207)"/>
<path d="M0 0 C1.32 0.33 2.64 0.66 4 1 C4 1.66 4 2.32 4 3 C4.66 3 5.32 3 6 3 C6.28875 3.639375 6.5775 4.27875 6.875 4.9375 C7.82823451 7.15206079 7.82823451 7.15206079 10 8 C10.6328125 9.84765625 10.6328125 9.84765625 11.125 12.0625 C11.29257812 12.79597656 11.46015625 13.52945313 11.6328125 14.28515625 C11.75398438 14.85105469 11.87515625 15.41695312 12 16 C12.66 16 13.32 16 14 16 C13.34 17.32 12.68 18.64 12 20 C11.63648438 19.2265625 11.27296875 18.453125 10.8984375 17.65625 C7.80239672 11.2418886 4.55159584 5.48773967 0 0 Z " fill="#90D474" transform="translate(270,158)"/>
<path d="M0 0 C0.33 0 0.66 0 1 0 C1 2.97 1 5.94 1 9 C-0.95901454 8.88617347 -2.9172338 8.75858875 -4.875 8.625 C-5.96554688 8.55539062 -7.05609375 8.48578125 -8.1796875 8.4140625 C-11 8 -11 8 -13 6 C-11.54176788 5.9729957 -10.08339325 5.95360213 -8.625 5.9375 C-7.81289062 5.92589844 -7.00078125 5.91429687 -6.1640625 5.90234375 C-4 6 -4 6 -2 7 C-1.34 4.69 -0.68 2.38 0 0 Z " fill="#97D778" transform="translate(181,284)"/>
<path d="M0 0 C0.70705078 -0.01224609 1.41410156 -0.02449219 2.14257812 -0.03710938 C5.90664521 -0.04771238 8.74546912 0.08987971 11.9375 2.1875 C10.73351562 2.17589844 9.52953125 2.16429687 8.2890625 2.15234375 C6.71354321 2.14296566 5.13802225 2.13386548 3.5625 2.125 C2.7684375 2.11662109 1.974375 2.10824219 1.15625 2.09960938 C-3.08642222 1.95709849 -3.08642222 1.95709849 -7.0625 3.1875 C-8.60273996 3.25700541 -10.14584988 3.27202357 -11.6875 3.25 C-12.91339844 3.23646484 -12.91339844 3.23646484 -14.1640625 3.22265625 C-15.10378906 3.20525391 -15.10378906 3.20525391 -16.0625 3.1875 C-11.00357675 -0.1851155 -5.94007005 0.00544461 0 0 Z " fill="#9FDA86" transform="translate(224.0625,151.8125)"/>
<path d="M0 0 C0 0.66 0 1.32 0 2 C-2.57861025 3.03444249 -5.16174635 4.05272284 -7.75 5.0625 C-8.47960937 5.35705078 -9.20921875 5.65160156 -9.9609375 5.95507812 C-10.66992188 6.22900391 -11.37890625 6.50292969 -12.109375 6.78515625 C-12.75874023 7.04176025 -13.40810547 7.29836426 -14.07714844 7.56274414 C-16.36632786 8.08330284 -17.79256664 7.72364304 -20 7 C-18.96939453 6.60167969 -18.96939453 6.60167969 -17.91796875 6.1953125 C-17.01691406 5.84210938 -16.11585938 5.48890625 -15.1875 5.125 C-13.84751953 4.60292969 -13.84751953 4.60292969 -12.48046875 4.0703125 C-9.82288409 3.01167845 -9.82288409 3.01167845 -7 1 C-4.605208 0.41590439 -2.46475374 0 0 0 Z " fill="#88CF66" transform="translate(322,403)"/>
<path d="M0 0 C0.33 0 0.66 0 1 0 C1.375 2.1875 1.375 2.1875 1 5 C-1.9375 7.6875 -1.9375 7.6875 -5 10 C-5.33 10.66 -5.66 11.32 -6 12 C-6.99 11.67 -7.98 11.34 -9 11 C-7.52444734 9.16375669 -6.04446569 7.3310715 -4.5625 5.5 C-3.73878906 4.4790625 -2.91507812 3.458125 -2.06640625 2.40625 C-1.38449219 1.6121875 -0.70257813 0.818125 0 0 Z " fill="#7BC15D" transform="translate(116,115)"/>
<path d="M0 0 C1.8871875 0.061875 1.8871875 0.061875 3.8125 0.125 C-0.0367085 3.9742085 -5.03242541 4.24434274 -10.24609375 4.3203125 C-12.03916756 4.30717643 -13.83219213 4.28355868 -15.625 4.25 C-16.54732422 4.24097656 -17.46964844 4.23195313 -18.41992188 4.22265625 C-20.67605809 4.1992766 -22.93163684 4.16650916 -25.1875 4.125 C-25.1875 3.795 -25.1875 3.465 -25.1875 3.125 C-23.92292969 3.07601563 -22.65835937 3.02703125 -21.35546875 2.9765625 C-19.69529053 2.9015262 -18.03513536 2.82597873 -16.375 2.75 C-15.54162109 2.7190625 -14.70824219 2.688125 -13.84960938 2.65625 C-13.04716797 2.61757813 -12.24472656 2.57890625 -11.41796875 2.5390625 C-10.31038208 2.49193115 -10.31038208 2.49193115 -9.18041992 2.44384766 C-5.57526449 1.86705812 -3.87941934 -0.12719408 0 0 Z " fill="#97D87C" transform="translate(305.1875,331.875)"/>
<path d="M0 0 C16.8929385 -0.3690205 16.8929385 -0.3690205 24 2 C24 2.33 24 2.66 24 3 C15.86455314 3.28545428 8.02350304 2.18396883 0 1 C0 0.67 0 0.34 0 0 Z " fill="#98D77E" transform="translate(221,328)"/>
<path d="M0 0 C0.33 0 0.66 0 1 0 C0.67 2.97 0.34 5.94 0 9 C-0.99 9 -1.98 9 -3 9 C-3.103125 9.763125 -3.20625 10.52625 -3.3125 11.3125 C-4.04364039 14.17059424 -4.76951913 15.15742885 -7 17 C-7 13.02698665 -5.28783907 10.25357249 -3.5 6.8125 C-3.16613281 6.15830078 -2.83226562 5.50410156 -2.48828125 4.83007812 C-1.66423076 3.2172936 -0.83281845 1.60827441 0 0 Z " fill="#98D87E" transform="translate(349,306)"/>
<path d="M0 0 C0 0.33 0 0.66 0 1 C-0.86882812 0.9278125 -1.73765625 0.855625 -2.6328125 0.78125 C-3.78523437 0.6884375 -4.93765625 0.595625 -6.125 0.5 C-7.26195312 0.4071875 -8.39890625 0.314375 -9.5703125 0.21875 C-12.72597149 0.0174779 -15.83921165 -0.03842904 -19 0 C-13.69891733 -5.30108267 -5.89133468 -3.44858615 0 0 Z " fill="#8CD16D" transform="translate(233,189)"/>
<path d="M0 0 C0.66 0 1.32 0 2 0 C1.47731534 2.76276177 0.89130413 5.3260876 0 8 C-2.0625 8.6875 -2.0625 8.6875 -4 9 C-4.33 8.01 -4.66 7.02 -5 6 C-2.6875 2.8125 -2.6875 2.8125 0 0 Z " fill="#8DD871" transform="translate(212,189)"/>
<path d="M0 0 C0.66 0 1.32 0 2 0 C5.11997802 3.30350614 6 4.32409833 6 9 C6.66 9 7.32 9 8 9 C8 10.65 8 12.3 8 14 C0 4.57142857 0 4.57142857 0 0 Z " fill="#83CC65" transform="translate(89,320)"/>
<path d="M0 0 C1.32 0.33 2.64 0.66 4 1 C5.125 5.75 5.125 5.75 4 8 C4.66 8 5.32 8 6 8 C6 10.31 6 12.62 6 15 C4.07334125 12.11001187 3.03397318 9.62870988 1.875 6.375 C1.52179688 5.39273438 1.16859375 4.41046875 0.8046875 3.3984375 C0 1 0 1 0 0 Z " fill="#081605" transform="translate(418,167)"/>
<path d="M0 0 C3.71045247 1.57780923 6.29906384 3.90703248 9.25 6.625 C10.14203125 7.44226563 11.0340625 8.25953125 11.953125 9.1015625 C12.96632813 10.04128906 12.96632813 10.04128906 14 11 C13.34 11.66 12.68 12.32 12 13 C11.51789063 12.50628906 11.03578125 12.01257813 10.5390625 11.50390625 C9.90742188 10.86324219 9.27578125 10.22257812 8.625 9.5625 C7.99851562 8.92441406 7.37203125 8.28632812 6.7265625 7.62890625 C5.08276939 5.92117824 5.08276939 5.92117824 3 5 C3 4.34 3 3.68 3 3 C2.01 2.67 1.02 2.34 0 2 C0 1.34 0 0.68 0 0 Z " fill="#82C764" transform="translate(367,100)"/>
<path d="M0 0 C0.33 0.99 0.66 1.98 1 3 C-2.66666667 6.66666667 -6.33333333 10.33333333 -10 14 C-10.66 13.67 -11.32 13.34 -12 13 C-8.04 8.71 -4.08 4.42 0 0 Z " fill="#85C767" transform="translate(389,352)"/>
<path d="M0 0 C0 0.66 0 1.32 0 2 C-5.5825192 5.32575612 -9.49686791 6.46450943 -16 6 C-13.12921701 4.08614468 -10.66588344 3.03567048 -7.4375 1.875 C-6.46683594 1.52179688 -5.49617188 1.16859375 -4.49609375 0.8046875 C-2 0 -2 0 0 0 Z " fill="#92D473" transform="translate(320,342)"/>
<path d="M0 0 C3.96038631 1.77534559 6.22739561 3.45479123 8.1875 7.375 C9.02263532 10.07312951 9.16030793 12.19461115 9 15 C6.25207517 11.59780735 3 7.51535412 3 3 C2.34 3 1.68 3 1 3 C0.67 2.01 0.34 1.02 0 0 Z " fill="#96D579" transform="translate(340,243)"/>
<path d="M0 0 C1.59957909 0.20609511 3.20396241 0.38280236 4.8125 0.5 C5.1425 0.17 5.4725 -0.16 5.8125 -0.5 C7.47867115 -0.54063832 9.14638095 -0.542721 10.8125 -0.5 C7.61890692 2.69359308 4.69553256 2.65818838 0.375 2.6875 C-1.04619141 2.70876953 -1.04619141 2.70876953 -2.49609375 2.73046875 C-5.23251644 2.49614518 -6.85178123 1.89701383 -9.1875 0.5 C-5.91874261 -0.53624943 -3.38391696 -0.43985922 0 0 Z " fill="#85D163" transform="translate(287.1875,298.5)"/>
<path d="M0 0 C0.66 0.33 1.32 0.66 2 1 C-0.625 5.875 -0.625 5.875 -4 7 C-4 7.66 -4 8.32 -4 9 C-5.32 8.67 -6.64 8.34 -8 8 C-5.36 5.36 -2.72 2.72 0 0 Z " fill="#8CD46C" transform="translate(187,165)"/>
<path d="M0 0 C0.33 0.99 0.66 1.98 1 3 C-1.97 5.31 -4.94 7.62 -8 10 C-8.66 9.67 -9.32 9.34 -10 9 C-8.71142987 7.68445979 -7.41904109 6.37265903 -6.125 5.0625 C-5.04605469 3.96615234 -5.04605469 3.96615234 -3.9453125 2.84765625 C-2 1 -2 1 0 0 Z " fill="#76B65A" transform="translate(134,98)"/>
<path d="M0 0 C0.99 0.33 1.98 0.66 3 1 C2.67 1.66 2.34 2.32 2 3 C1.34 3 0.68 3 0 3 C-0.226875 3.721875 -0.45375 4.44375 -0.6875 5.1875 C-2.24831013 8.53209313 -4.3031287 10.51603959 -7 13 C-7 11.68 -7 10.36 -7 9 C-6.34 9 -5.68 9 -5 9 C-5 8.34 -5 7.68 -5 7 C-4.34 7 -3.68 7 -3 7 C-2.690625 6.030625 -2.38125 5.06125 -2.0625 4.0625 C-1 1 -1 1 0 0 Z " fill="#83C861" transform="translate(398,339)"/>
<path d="M0 0 C2.97 0.33 5.94 0.66 9 1 C9 1.66 9 2.32 9 3 C9.66 3 10.32 3 11 3 C11.66 4.65 12.32 6.3 13 8 C11.02 7.01 9.04 6.02 7 5 C7 4.34 7 3.68 7 3 C4.69 2.34 2.38 1.68 0 1 C0 0.67 0 0.34 0 0 Z " fill="#92D774" transform="translate(317,225)"/>
<path d="M0 0 C0.66 0 1.32 0 2 0 C2 1.32 2 2.64 2 4 C1.34 4 0.68 4 0 4 C0 4.66 0 5.32 0 6 C-0.66 6 -1.32 6 -2 6 C-2.33 6.99 -2.66 7.98 -3 9 C-4.32 8.67 -5.64 8.34 -7 8 C-5.88200014 6.66079162 -4.75538103 5.32877444 -3.625 4 C-2.68527344 2.88625 -2.68527344 2.88625 -1.7265625 1.75 C-1.15679687 1.1725 -0.58703125 0.595 0 0 Z " fill="#98D879" transform="translate(371,200)"/>
<path d="M0 0 C0.33 0 0.66 0 1 0 C1.33 3.63 1.66 7.26 2 11 C3.32 11.33 4.64 11.66 6 12 C6 12.66 6 13.32 6 14 C3.69 13.67 1.38 13.34 -1 13 C-0.67 8.71 -0.34 4.42 0 0 Z " fill="#9CD982" transform="translate(161,276)"/>
<path d="M0 0 C2.69082872 0.17635452 5.32851446 0.61835921 8 1 C8 1.33 8 1.66 8 2 C5.39740876 2.53010201 2.793443 3.04937795 0.1875 3.5625 C-0.91948242 3.78969727 -0.91948242 3.78969727 -2.04882812 4.02148438 C-7.66015625 5.11328125 -7.66015625 5.11328125 -11 4 C-10.34 4 -9.68 4 -9 4 C-8.67 3.01 -8.34 2.02 -8 1 C-6.865625 1.020625 -5.73125 1.04125 -4.5625 1.0625 C-1.18424326 1.41577477 -1.18424326 1.41577477 0 0 Z " fill="#12300B" transform="translate(216,57)"/>
<path d="M0 0 C0.33 0.99 0.66 1.98 1 3 C0.34 3 -0.32 3 -1 3 C-0.71125 3.62648438 -0.4225 4.25296875 -0.125 4.8984375 C0.24625 5.71570313 0.6175 6.53296875 1 7.375 C1.556875 8.59316406 1.556875 8.59316406 2.125 9.8359375 C3 12 3 12 3 14 C2.34 14 1.68 14 1 14 C-2.61643836 6.31506849 -2.61643836 6.31506849 -2 2 C-1.34 1.34 -0.68 0.68 0 0 Z " fill="#84CC62" transform="translate(84,300)"/>
<path d="M0 0 C0.96484618 3.05192479 1.00348185 5.0371838 0.1875 8.125 C-0.06966797 9.14980469 -0.06966797 9.14980469 -0.33203125 10.1953125 C-1 12 -1 12 -3 14 C-3.66 14 -4.32 14 -5 14 C-4.731875 13.360625 -4.46375 12.72125 -4.1875 12.0625 C-2.64635858 8.08797739 -1.32390688 4.05115505 0 0 Z " fill="#9CDA7D" transform="translate(378,186)"/>
<path d="M0 0 C0.33 0 0.66 0 1 0 C0.97679687 0.81984375 0.95359375 1.6396875 0.9296875 2.484375 C0.91164062 3.56203125 0.89359375 4.6396875 0.875 5.75 C0.85179687 6.81734375 0.82859375 7.8846875 0.8046875 8.984375 C0.99512313 11.92470106 1.47329896 13.52361878 3 16 C1.68 15.67 0.36 15.34 -1 15 C-1.02693575 12.87506859 -1.04636628 10.75004088 -1.0625 8.625 C-1.07410156 7.44164062 -1.08570313 6.25828125 -1.09765625 5.0390625 C-1 2 -1 2 0 0 Z " fill="#92D375" transform="translate(229,294)"/>
<path d="M0 0 C0.33 0.66 0.66 1.32 1 2 C-0.5625 5 -0.5625 5 -3 8 C-6.75 8.375 -6.75 8.375 -10 8 C-9.01 7.34 -8.02 6.68 -7 6 C-5.9790625 5.195625 -5.9790625 5.195625 -4.9375 4.375 C-3 3 -3 3 -1 3 C-0.67 2.01 -0.34 1.02 0 0 Z " fill="#DCF8CF" transform="translate(303,293)"/>
<path d="M0 0 C0.33 0 0.66 0 1 0 C1.2358396 5.77807024 0.86783046 10.51324804 -1 16 C-1.33 16 -1.66 16 -2 16 C-2.20674944 10.21101581 -1.59162079 5.57067277 0 0 Z " fill="#DCF7CE" transform="translate(194,192)"/>
<path d="M0 0 C0.66 0 1.32 0 2 0 C3.5625 2.8125 3.5625 2.8125 5 6 C4.67 6.99 4.34 7.98 4 9 C2.35 7.68 0.7 6.36 -1 5 C-0.67 3.35 -0.34 1.7 0 0 Z " fill="#7EC55F" transform="translate(412,158)"/>
<path d="M0 0 C0.66 0.33 1.32 0.66 2 1 C1.67 2.32 1.34 3.64 1 5 C-1.31 5.33 -3.62 5.66 -6 6 C-6 6.66 -6 7.32 -6 8 C-6.99 7.67 -7.98 7.34 -9 7 C-8.34 7 -7.68 7 -7 7 C-7 6.34 -7 5.68 -7 5 C-5.03277992 3.61876037 -3.03131672 2.28511874 -1 1 C-0.67 0.67 -0.34 0.34 0 0 Z " fill="#74B557" transform="translate(149,86)"/>
<path d="M0 0 C1.41702513 0.14230808 2.8336096 0.28900746 4.25 0.4375 C5.43335938 0.55931641 5.43335938 0.55931641 6.640625 0.68359375 C8.82364639 0.97634993 10.8773182 1.42064419 13 2 C12.67 2.66 12.34 3.32 12 4 C10.56138706 3.91253716 9.12402492 3.80434652 7.6875 3.6875 C6.88699219 3.62949219 6.08648437 3.57148438 5.26171875 3.51171875 C2.63727666 2.91793306 1.69179328 2.04219706 0 0 Z " fill="#84D45F" transform="translate(175,402)"/>
<path d="M0 0 C0.33 0 0.66 0 1 0 C1.07654536 4.51617599 1.10228696 8.59085217 0 13 C-2.32536063 9.51195905 -2.33457898 8.09859246 -2 4 C-1 1.625 -1 1.625 0 0 Z " fill="#84D462" transform="translate(236,232)"/>
<path d="M0 0 C0.33 0.66 0.66 1.32 1 2 C0.0625 4.125 0.0625 4.125 -1 6 C-1.66 6 -2.32 6 -3 6 C-3.144375 6.61875 -3.28875 7.2375 -3.4375 7.875 C-4 10 -4 10 -5 12 C-5.66 12 -6.32 12 -7 12 C-5.63855967 6.80177328 -3.53269829 3.90456127 0 0 Z " fill="#DDF9CF" transform="translate(170,164)"/>
<path d="M0 0 C0 0.66 0 1.32 0 2 C-0.66 2.66 -1.32 3.32 -2 4 C-2 4.66 -2 5.32 -2 6 C-4.31 6 -6.62 6 -9 6 C-8.67 5.34 -8.34 4.68 -8 4 C-7.34 4 -6.68 4 -6 4 C-6 3.34 -6 2.68 -6 2 C-2.25 0 -2.25 0 0 0 Z " fill="#91D572" transform="translate(198,159)"/>
<path d="M0 0 C3.53372712 1.96318174 6.24479785 4.04070881 9 7 C8.34 7.66 7.68 8.32 7 9 C5.82737096 7.88121617 4.66204862 6.75476949 3.5 5.625 C2.8503125 4.99851562 2.200625 4.37203125 1.53125 3.7265625 C0 2 0 2 0 0 Z " fill="#85CD64" transform="translate(127,369)"/>
<path d="M0 0 C0 3 0 3 -2.25 5.75 C-3.1575 6.4925 -4.065 7.235 -5 8 C-6.32 7.67 -7.64 7.34 -9 7 C-6.03 4.69 -3.06 2.38 0 0 Z " fill="#97D77B" transform="translate(329,334)"/>
<path d="M0 0 C8.57142857 -0.28571429 8.57142857 -0.28571429 12 2 C12 2.66 12 3.32 12 4 C6.06 2.515 6.06 2.515 0 1 C0 0.67 0 0.34 0 0 Z " fill="#9CDA7F" transform="translate(240,141)"/>
<path d="M0 0 C2.31 0 4.62 0 7 0 C7.33 0.99 7.66 1.98 8 3 C9.32303717 3.3721042 10.65737935 3.70630173 12 4 C12.33 4.66 12.66 5.32 13 6 C8.52761347 4.58192622 4.28853694 2.88695626 0 1 C0 0.67 0 0.34 0 0 Z " fill="#94D377" transform="translate(350,139)"/>
<path d="M0 0 C0.66 0.33 1.32 0.66 2 1 C0.66511872 4.59391114 -0.96022723 7.75490696 -3 11 C-3.66 10.67 -4.32 10.34 -5 10 C-4.01 7.69 -3.02 5.38 -2 3 C-1.34 3 -0.68 3 0 3 C0 2.01 0 1.02 0 0 Z " fill="#EBFDE3" transform="translate(315,293)"/>
<path d="M0 0 C0.33 0 0.66 0 1 0 C1.44539877 8.7595092 1.44539877 8.7595092 -2 13 C-2.66 13 -3.32 13 -4 13 C-3.71125 12.34 -3.4225 11.68 -3.125 11 C-1.76562701 7.37500535 -0.89375361 3.76653307 0 0 Z " fill="#94D67A" transform="translate(318,288)"/>
<path d="M0 0 C1.43836751 0.11458693 2.87570966 0.24209116 4.3125 0.375 C5.51326172 0.47941406 5.51326172 0.47941406 6.73828125 0.5859375 C9 1 9 1 12 3 C12 3.66 12 4.32 12 5 C10.56068883 4.54738642 9.12361001 4.08767021 7.6875 3.625 C6.88699219 3.36976563 6.08648437 3.11453125 5.26171875 2.8515625 C3 2 3 2 0 0 Z " fill="#DFF9D0" transform="translate(304,234)"/>
<path d="M0 0 C2.475 0.495 2.475 0.495 5 1 C5.33 2.65 5.66 4.3 6 6 C4.125 5.8125 4.125 5.8125 2 5 C0.75 2.4375 0.75 2.4375 0 0 Z " fill="#A1DB85" transform="translate(233,190)"/>
<path d="M0 0 C0.66 0.99 1.32 1.98 2 3 C1.01 3.495 1.01 3.495 0 4 C-1.05352843 6.30965848 -2.05719096 8.6429774 -3 11 C-3.66 11 -4.32 11 -5 11 C-3.77472971 6.94718288 -2.30119506 3.55639236 0 0 Z " fill="#96D876" transform="translate(178,174)"/>
<path d="M0 0 C1 2 2 4 3 6 C5.52733235 6.65555119 5.52733235 6.65555119 8 7 C8 7.33 8 7.66 8 8 C5.36 8.33 2.72 8.66 0 9 C0 6.03 0 3.06 0 0 Z " fill="#85D462" transform="translate(194,316)"/>
<path d="M0 0 C4.24822374 0.47202486 6.19989709 2.96655518 9 6 C8.67 6.99 8.34 7.98 8 9 C5.06799526 6.14723863 2.35684596 3.34920216 0 0 Z " fill="#E6FBDB" transform="translate(321,242)"/>
<path d="M0 0 C1.65 0 3.3 0 5 0 C5.28875 0.61875 5.5775 1.2375 5.875 1.875 C6.93720042 4.13325765 6.93720042 4.13325765 9 6 C4.58763974 6 3.21615077 3.9302707 0 1 C0 0.67 0 0.34 0 0 Z " fill="#92D677" transform="translate(240,178)"/>
<path d="M0 0 C1.13643966 3.40931897 0.86747764 4.00335456 -0.4375 7.1875 C-0.86869141 8.26064453 -0.86869141 8.26064453 -1.30859375 9.35546875 C-1.53675781 9.89816406 -1.76492188 10.44085938 -2 11 C-2.33 11 -2.66 11 -3 11 C-3 8.36 -3 5.72 -3 3 C-2.34 3 -1.68 3 -1 3 C-0.67 2.01 -0.34 1.02 0 0 Z " fill="#85D362" transform="translate(303,165)"/>
<path d="M0 0 C3.8063457 0.67170806 7.35206816 1.72746564 11 3 C11 3.66 11 4.32 11 5 C2.28571429 3.14285714 2.28571429 3.14285714 0 0 Z " fill="#D7F7C7" transform="translate(321,210)"/>
<path d="M0 0 C-0.7734375 0.37125 -0.7734375 0.37125 -1.5625 0.75 C-4.77184151 2.39581616 -7.87585664 4.1976096 -11 6 C-10.75 4.125 -10.75 4.125 -10 2 C-6.82026536 -0.35535899 -3.84875379 -0.17494335 0 0 Z " fill="#E8FDDC" transform="translate(220,186)"/>
<path d="M0 0 C2.91227269 3.28804981 4.49701212 5.59885603 5 10 C2.5 8.375 2.5 8.375 0 6 C-0.3125 2.75 -0.3125 2.75 0 0 Z " fill="#97D679" transform="translate(267,176)"/>
<path d="M0 0 C-1 2 -1 2 -3.875 3.25 C-4.90625 3.4975 -5.9375 3.745 -7 4 C-7.99 3.34 -8.98 2.68 -10 2 C-8.71211992 1.46987262 -7.41953322 0.9511671 -6.125 0.4375 C-5.40570313 0.14746094 -4.68640625 -0.14257812 -3.9453125 -0.44140625 C-2 -1 -2 -1 0 0 Z " fill="#6BAB4F" transform="translate(194,66)"/>
<path d="M0 0 C2.625 -0.1875 2.625 -0.1875 5 0 C4.34 0.66 3.68 1.32 3 2 C3.33 2.66 3.66 3.32 4 4 C3.34 4 2.68 4 2 4 C1.67 4.66 1.34 5.32 1 6 C0.01 5.01 -0.98 4.02 -2 3 C-1.34 2.01 -0.68 1.02 0 0 Z " fill="#79C955" transform="translate(152,386)"/>
<path d="M0 0 C0.99 0 1.98 0 3 0 C2.25 4.75 2.25 4.75 0 7 C-1.125 2.25 -1.125 2.25 0 0 Z " fill="#7FCA5B" transform="translate(403,329)"/>
<path d="M0 0 C0.7425 0.45375 1.485 0.9075 2.25 1.375 C4.46930578 2.68640796 6.67967822 3.88280803 9 5 C6.36 5 3.72 5 1 5 C0.67 3.35 0.34 1.7 0 0 Z " fill="#9CDA7D" transform="translate(147,296)"/>
<path d="M0 0 C0.99 0.33 1.98 0.66 3 1 C1.92598892 3.91517292 1.22189824 5.77810176 -1 8 C-0.979375 7.21625 -0.95875 6.4325 -0.9375 5.625 C-0.81315937 3.01885039 -0.81315937 3.01885039 -2 1 C-1.34 0.67 -0.68 0.34 0 0 Z " fill="#88D467" transform="translate(195,184)"/>
<path d="M0 0 C1.65 1.65 3.3 3.3 5 5 C4.01 5.495 4.01 5.495 3 6 C2.67 6.66 2.34 7.32 2 8 C0.23537317 4.91190305 0 3.76687864 0 0 Z " fill="#71B753" transform="translate(393,126)"/>
<path d="M0 0 C0.99 0.33 1.98 0.66 3 1 C2.34 1 1.68 1 1 1 C1 1.99 1 2.98 1 4 C0.01 4.33 -0.98 4.66 -2 5 C-2.33 5.66 -2.66 6.32 -3 7 C-3.99 6.67 -4.98 6.34 -6 6 C-4.02 4.02 -2.04 2.04 0 0 Z " fill="#82C562" transform="translate(123,108)"/>
<path d="M0 0 C-2.46278801 2.46278801 -4.70676982 2.99771255 -8 4 C-8 2.68 -8 1.36 -8 0 C-4.71023192 -1.09658936 -3.28696233 -0.79953138 0 0 Z " fill="#0C1C09" transform="translate(189,66)"/>
<path d="M0 0 C2.475 0.495 2.475 0.495 5 1 C5.33 2.65 5.66 4.3 6 6 C4.125 5.8125 4.125 5.8125 2 5 C0.75 2.4375 0.75 2.4375 0 0 Z M5 0 C7 1 7 1 7 1 Z " fill="#78C558" transform="translate(161,393)"/>
<path d="M0 0 C0.33 1.32 0.66 2.64 1 4 C-1.4375 6.75 -1.4375 6.75 -4 9 C-4.66 8.67 -5.32 8.34 -6 8 C-4.02 5.36 -2.04 2.72 0 0 Z " fill="#112808" transform="translate(394,348)"/>
<path d="M0 0 C3.91402949 1.26941497 5.79072873 2.51167694 8 6 C7.01 6.495 7.01 6.495 6 7 C5.34 6.01 4.68 5.02 4 4 C1.44816596 2.79549696 1.44816596 2.79549696 -1 2 C-0.67 1.34 -0.34 0.68 0 0 Z " fill="#8ED470" transform="translate(294,266)"/>
<path d="M0 0 C2.3431213 0.25561323 4.67843403 0.59270772 7 1 C7.33 1.66 7.66 2.32 8 3 C5.36 3 2.72 3 0 3 C0 2.01 0 1.02 0 0 Z " fill="#8ED26B" transform="translate(304,235)"/>
<path d="M0 0 C1.15224028 0.92961422 2.29659176 1.8690125 3.4375 2.8125 C4.07558594 3.33457031 4.71367187 3.85664063 5.37109375 4.39453125 C7 6 7 6 8 9 C6 9 6 9 4.4921875 7.5390625 C3.95851563 6.90742188 3.42484375 6.27578125 2.875 5.625 C2.06675781 4.68527344 2.06675781 4.68527344 1.2421875 3.7265625 C0 2 0 2 0 0 Z " fill="#97D57B" transform="translate(257,164)"/>
<path d="M0 0 C2.79872437 2.52788007 4.45773019 4.20411134 5 8 C4.34 8 3.68 8 3 8 C3 7.34 3 6.68 3 6 C2.34 6 1.68 6 1 6 C0.67 4.02 0.34 2.04 0 0 Z " fill="#73B356" transform="translate(404,142)"/>
<path d="M0 0 C-2.55068845 2.35448165 -3.71017358 2.98327924 -7.25 3.1875 C-8.1575 3.125625 -9.065 3.06375 -10 3 C-4.375 -1.3125 -4.375 -1.3125 0 0 Z " fill="#E2F9D4" transform="translate(330,142)"/>
<path d="M0 0 C0.66 0.33 1.32 0.66 2 1 C1.34 2.32 0.68 3.64 0 5 C-2.97 4.505 -2.97 4.505 -6 4 C-4.02610343 2.02610343 -2.56269497 1.04109483 0 0 Z " fill="#193510" transform="translate(326,402)"/>
<path d="M0 0 C-0.66 1.32 -1.32 2.64 -2 4 C-3.65 4 -5.3 4 -7 4 C-3.17391304 0 -3.17391304 0 0 0 Z " fill="#0E2407" transform="translate(346,393)"/>
<path d="M0 0 C2.475 0.495 2.475 0.495 5 1 C5.33 1.99 5.66 2.98 6 4 C6.66 4 7.32 4 8 4 C7.67 4.66 7.34 5.32 7 6 C5.83054208 5.19152271 4.66449539 4.37810888 3.5 3.5625 C2.8503125 3.11003906 2.200625 2.65757812 1.53125 2.19140625 C1.0259375 1.79824219 0.520625 1.40507812 0 1 C0 0.67 0 0.34 0 0 Z " fill="#73B65A" transform="translate(135,378)"/>
<path d="M0 0 C0.99 0 1.98 0 3 0 C4.42944945 2.35438733 5.08661261 3.48032433 4.625 6.25 C4.41875 6.8275 4.2125 7.405 4 8 C0 2.25 0 2.25 0 0 Z " fill="#80CA5F" transform="translate(97,334)"/>
<path d="M0 0 C1.98 0.99 3.96 1.98 6 3 C5.67 3.99 5.34 4.98 5 6 C4.01 6 3.02 6 2 6 C2 5.01 2 4.02 2 3 C1.34 2.67 0.68 2.34 0 2 C0 1.34 0 0.68 0 0 Z " fill="#89D469" transform="translate(313,238)"/>
<path d="M0 0 C1.32 0.33 2.64 0.66 4 1 C4 3.64 4 6.28 4 9 C2.00902154 6.01353231 1.05875074 3.40312738 0 0 Z " fill="#92D573" transform="translate(375,159)"/>
<path d="M0 0 C0.99 0.33 1.98 0.66 3 1 C1.79618552 3.49361571 0.54571278 5.68143083 -1 8 C-1.125 2.25 -1.125 2.25 0 0 Z " fill="#89D366" transform="translate(307,152)"/>
<path d="M0 0 C2.91517292 1.07401108 4.77810176 1.77810176 7 4 C5.35 4.33 3.7 4.66 2 5 C2 4.01 2 3.02 2 2 C1.34 2 0.68 2 0 2 C0 1.34 0 0.68 0 0 Z " fill="#80CA5F" transform="translate(337,79)"/>
</svg>
